<svg width="56" height="42" viewBox="0 0 56 42" fill="none" xmlns="http://www.w3.org/2000/svg">
<path id="Vector" d="M48.0599 24.1188C46.1217 24.129 44.4372 24.5958 43.0267 25.2858C42.5092 24.2609 41.9917 23.3476 41.9004 22.6779C41.7989 21.8966 41.6771 21.4196 41.7989 20.4861C41.9207 19.5525 42.4686 18.2232 42.4585 18.1217C42.4483 18.0202 42.3367 17.5433 41.2205 17.5332C40.1043 17.523 39.1403 17.7463 39.0286 18.0405C38.917 18.3348 38.7039 19.0045 38.5618 19.6946C38.369 20.7093 36.3294 24.3319 35.1625 26.2295C34.787 25.4887 34.4623 24.8393 34.3913 24.3218C34.2898 23.5404 34.168 23.0635 34.2898 22.1299C34.4115 21.1964 34.9595 19.8671 34.9494 19.7656C34.9392 19.6641 34.8276 19.1872 33.7114 19.177C32.5952 19.1669 31.6311 19.3901 31.5195 19.6844C31.4079 19.9787 31.2861 20.6687 31.0527 21.3384C30.8194 22.0082 28.11 28.056 27.3997 29.6188C27.0344 30.4204 26.7198 31.0597 26.4965 31.496C26.4965 31.496 26.4864 31.5265 26.456 31.5772C26.2632 31.9527 26.1515 32.1556 26.1515 32.1556C26.1515 32.1556 26.1515 32.1556 26.1515 32.1658C25.9993 32.4397 25.837 32.6934 25.7558 32.6934C25.6949 32.6934 25.5833 31.9628 25.7761 30.9684C26.182 28.8678 27.146 25.6004 27.1358 25.4887C27.1358 25.4279 27.3185 24.8596 26.5067 24.5653C25.7152 24.2711 25.4311 24.7581 25.36 24.7581C25.289 24.7581 25.2383 24.9306 25.2383 24.9306C25.2383 24.9306 26.1211 21.2573 23.5538 21.2573C21.9505 21.2573 19.7384 23.0128 18.6424 24.5958C17.9524 24.9712 16.481 25.7729 14.9082 26.6354C14.3095 26.9703 13.6905 27.3051 13.1121 27.6197C13.0715 27.5791 13.0309 27.5284 12.9903 27.4878C9.88519 24.1696 4.14174 21.8255 4.38528 17.3708C4.4766 15.7472 5.03471 11.4853 15.4155 6.31009C23.9597 2.0989 30.7585 3.26586 31.9356 5.85345C33.62 9.54712 28.2926 16.4068 19.4644 17.4012C16.0954 17.7767 14.3298 16.4778 13.8833 15.9907C13.4165 15.4834 13.3455 15.4529 13.173 15.5544C12.8888 15.7066 13.0715 16.1633 13.173 16.4271C13.4368 17.1171 14.5226 18.3348 16.3593 18.9335C17.9828 19.4612 21.9302 19.7554 26.7096 17.9086C32.0573 15.8385 36.2381 10.0849 35.0102 5.2649C33.7824 0.373838 25.6645 -1.2396 17.9828 1.49006C13.4165 3.11365 8.46455 5.6708 4.9028 8.99916C0.671315 12.9567 0.00158493 16.3966 0.275566 17.8376C1.25987 22.9519 8.31234 26.2802 11.1333 28.7461C10.9913 28.8273 10.8593 28.8983 10.7477 28.9592C9.33723 29.6593 3.95909 32.4702 2.61962 35.4434C1.09751 38.8123 2.86316 41.2274 4.03012 41.5521C7.65275 42.5567 11.3769 40.7505 13.3759 37.7671C15.375 34.7838 15.1314 30.9075 14.208 29.1317C14.1979 29.1114 14.1877 29.0911 14.1674 29.0708C14.5327 28.8577 14.9082 28.6345 15.2735 28.4214C15.9939 27.9952 16.7043 27.5994 17.3131 27.2747C16.9681 28.2184 16.7144 29.3448 16.5926 30.9684C16.4404 32.8761 17.2218 35.3521 18.2467 36.3262C18.7033 36.7524 19.2411 36.7626 19.5861 36.7626C20.7835 36.7626 21.3214 35.7681 21.92 34.591C22.6507 33.1501 23.3102 31.4757 23.3102 31.4757C23.3102 31.4757 22.4883 36.0015 24.7207 36.0015C25.5325 36.0015 26.3545 34.9462 26.7198 34.4083C26.7198 34.4185 26.7198 34.4185 26.7198 34.4185C26.7198 34.4185 26.7401 34.3881 26.7807 34.317C26.8619 34.1851 26.9126 34.1039 26.9126 34.1039C26.9126 34.1039 26.9126 34.0938 26.9126 34.0836C27.2373 33.5154 27.9679 32.2266 29.0537 30.0855C30.454 27.3254 31.8037 23.8753 31.8037 23.8753C31.8037 23.8753 31.9254 24.7175 32.3415 26.1179C32.585 26.9398 33.0924 27.843 33.4983 28.7156C33.1736 29.1723 32.9706 29.426 32.9706 29.426C32.9706 29.426 32.9706 29.426 32.9808 29.4361C32.7169 29.7811 32.4328 30.1566 32.1182 30.5219C31.0122 31.841 29.693 33.353 29.5103 33.7893C29.2972 34.3069 29.348 34.6823 29.7539 34.9867C30.0481 35.21 30.5758 35.2404 31.1136 35.21C32.1081 35.139 32.8083 34.8954 33.1533 34.7432C33.6911 34.5504 34.3202 34.2561 34.9088 33.8198C35.9945 33.0181 36.6541 31.8715 36.5932 30.3595C36.5628 29.5274 36.2888 28.6953 35.954 27.914C36.0554 27.7719 36.1468 27.6299 36.2482 27.4878C37.9632 24.9814 39.2925 22.2314 39.2925 22.2314C39.2925 22.2314 39.4142 23.0737 39.8303 24.474C40.0332 25.1843 40.4493 25.9555 40.8146 26.7064C39.2011 28.0155 38.2067 29.5376 37.8515 30.532C37.2122 32.3789 37.7095 33.2109 38.6532 33.4037C39.0794 33.4951 39.6882 33.2921 40.1347 33.0993C40.703 32.9167 41.3727 32.6021 42.012 32.1353C43.0978 31.3337 44.1429 30.2175 44.0821 28.7055C44.0516 28.0155 43.869 27.3356 43.6153 26.676C44.9852 26.1077 46.7508 25.7932 49.0036 26.057C53.8337 26.6253 54.7876 29.639 54.605 30.9075C54.4223 32.1759 53.4076 32.8659 53.0727 33.079C52.7378 33.2921 52.6262 33.3632 52.6566 33.5154C52.6972 33.7386 52.8596 33.7285 53.1437 33.6879C53.5395 33.6168 55.6806 32.663 55.7719 30.3291C55.9241 27.3457 53.0828 24.0884 48.0599 24.1188ZM10.7985 36.6814C9.19516 38.4267 6.96273 39.0863 5.99872 38.5282C4.96368 37.9295 5.36958 35.3521 7.33818 33.5052C8.53558 32.3789 10.078 31.3337 11.1029 30.6944C11.3363 30.5523 11.6813 30.3494 12.0973 30.0957C12.1684 30.0551 12.209 30.0348 12.209 30.0348C12.2901 29.9841 12.3713 29.9333 12.4525 29.8826C13.173 32.5209 12.4829 34.8447 10.7985 36.6814ZM22.468 28.7461C21.9099 30.1058 20.7429 33.5864 20.0326 33.3936C19.4238 33.2312 19.0483 30.5929 19.9109 27.985C20.3472 26.676 21.2706 25.1133 21.8084 24.5044C22.6811 23.5303 23.6451 23.2056 23.8785 23.6013C24.1728 24.1188 22.813 27.8937 22.468 28.7461ZM32.0979 33.353C31.8645 33.4748 31.6413 33.556 31.5398 33.4951C31.4688 33.4545 31.6413 33.2921 31.6413 33.2921C31.6413 33.2921 32.8488 31.9933 33.3258 31.4047C33.5998 31.0597 33.9245 30.6538 34.2695 30.1972C34.2695 30.2377 34.2695 30.2885 34.2695 30.3291C34.2695 31.8816 32.7677 32.9268 32.0979 33.353ZM39.5259 31.6584C39.3533 31.5366 39.3838 31.1307 39.9622 29.8623C40.1854 29.3651 40.7131 28.533 41.6162 27.7313C41.7177 28.056 41.7887 28.3706 41.7786 28.6649C41.7684 30.6233 40.3681 31.354 39.5259 31.6584Z" fill="#CD6799"/>
</svg>
