<svg width="56" height="34" viewBox="0 0 56 34" fill="none" xmlns="http://www.w3.org/2000/svg">
<path id="Vector" d="M27.9999 0.333252C20.5923 0.333252 15.9628 4.03602 14.1107 11.4409C16.8888 7.7381 20.1296 6.35008 23.8331 7.27543C25.9464 7.8034 27.4567 9.33661 29.1288 11.0331C31.8521 13.7966 35.004 16.995 41.8892 16.995C49.2961 16.995 53.9263 13.2923 55.7777 5.88671C53.0003 9.58949 49.7595 10.9782 46.0553 10.0529C43.9427 9.52488 42.4324 7.99167 40.7603 6.2952C38.037 3.53167 34.8845 0.333252 27.9999 0.333252ZM14.1107 16.995C6.70377 16.995 2.07356 20.6978 0.222168 28.1033C2.9996 24.4006 6.2404 23.0119 9.94457 23.9379C12.0572 24.4666 13.5675 25.9991 15.2396 27.6949C17.9629 30.4584 21.1154 33.6575 27.9999 33.6575C35.4076 33.6575 40.0371 29.9547 41.8892 22.5492C39.1111 26.252 35.8703 27.6407 32.1668 26.7146C30.0535 26.1873 28.5432 24.6534 26.8711 22.9577C24.1478 20.1941 20.9959 16.995 14.1107 16.995Z" fill="#06B6D4"/>
</svg>
