<svg width="51" height="50" viewBox="0 0 51 50" fill="none" xmlns="http://www.w3.org/2000/svg">
<g id="Group 57">
<path id="Vector" d="M25.5001 0C11.6947 0 0.5 11.476 0.5 25.6329C0.5 36.9583 7.66328 46.5665 17.5967 49.956C18.846 50.1932 19.3048 49.3999 19.3048 48.7228C19.3048 48.1117 19.2815 46.0923 19.2709 43.9505C12.3157 45.5011 10.8481 40.9261 10.8481 40.9261C9.71085 37.9633 8.07228 37.1756 8.07228 37.1756C5.80413 35.5846 8.24326 35.6172 8.24326 35.6172C10.7538 35.7981 12.0757 38.2588 12.0757 38.2588C14.3054 42.1776 17.9241 41.0445 19.3507 40.3898C19.575 38.7328 20.223 37.6022 20.9379 36.9621C15.3852 36.3138 9.54772 34.1159 9.54772 24.2942C9.54772 21.4958 10.5244 19.209 12.1237 17.414C11.8641 16.7683 11.0085 14.1612 12.3659 10.6305C12.3659 10.6305 14.4652 9.94154 19.2427 13.258C21.2367 12.6899 23.3755 12.4052 25.5001 12.3956C27.6247 12.4052 29.765 12.6899 31.763 13.258C36.5348 9.94154 38.6312 10.6305 38.6312 10.6305C39.9919 14.1612 39.1359 16.7683 38.8763 17.414C40.4792 19.209 41.4491 21.4956 41.4491 24.2942C41.4491 34.1392 35.6007 36.3072 30.0339 36.9416C30.9305 37.7371 31.7295 39.2971 31.7295 41.6884C31.7295 45.1181 31.7005 47.8785 31.7005 48.7228C31.7005 49.4049 32.1504 50.2043 33.4179 49.9526C43.3457 46.5593 50.5 36.9545 50.5 25.6329C50.5 11.476 39.3069 0 25.5001 0Z" fill="white"/>
<path id="Vector_2" d="M9.86332 36.5146C9.80842 36.6419 9.61274 36.6801 9.4349 36.5928C9.25354 36.5092 9.15158 36.3355 9.2104 36.2076C9.26432 36.0766 9.46 36.04 9.64098 36.128C9.82273 36.2115 9.92626 36.3868 9.86332 36.5146ZM11.0931 37.6396C10.9739 37.753 10.7407 37.7003 10.5825 37.5212C10.419 37.3425 10.3884 37.1037 10.5094 36.9885C10.6323 36.8753 10.8584 36.9281 11.0223 37.1071C11.1858 37.2878 11.2176 37.5252 11.0929 37.6398L11.0931 37.6396ZM11.9368 39.079C11.7835 39.1882 11.5329 39.0858 11.3782 38.8579C11.225 38.6301 11.225 38.3567 11.3815 38.2471C11.5368 38.1376 11.7835 38.2361 11.9403 38.4622C12.0932 38.694 12.0932 38.9674 11.9366 39.0792L11.9368 39.079ZM13.3634 40.7462C13.2263 40.901 12.9346 40.8596 12.7209 40.6481C12.5024 40.4414 12.4415 40.1481 12.5789 39.9931C12.7175 39.8379 13.0111 39.8815 13.2263 40.0912C13.4434 40.2975 13.5097 40.593 13.3636 40.7462H13.3634ZM15.2073 41.3091C15.1471 41.5097 14.8659 41.601 14.5828 41.5157C14.3 41.4279 14.1149 41.1927 14.172 40.9898C14.2308 40.7878 14.5132 40.6927 14.7985 40.784C15.0808 40.8714 15.2663 41.1048 15.2075 41.3091H15.2073ZM17.306 41.5477C17.3131 41.7592 17.0729 41.9345 16.7756 41.9383C16.4766 41.945 16.2349 41.7739 16.2317 41.566C16.2317 41.3525 16.4664 41.1788 16.7652 41.1738C17.0625 41.1678 17.306 41.3376 17.306 41.5477ZM19.3675 41.4667C19.4032 41.673 19.1965 41.8848 18.9014 41.9411C18.6113 41.9954 18.3426 41.8682 18.3056 41.6637C18.2695 41.4522 18.4801 41.2405 18.7697 41.1857C19.0654 41.133 19.3299 41.257 19.3675 41.4667Z" fill="white"/>
</g>
</svg>
