<svg width="50" height="56" viewBox="0 0 50 56" fill="none" xmlns="http://www.w3.org/2000/svg">
<g id="Group 83">
<path id="polygon2989" d="M49.4931 0.22229L45.0304 50.2165L24.9701 55.7778L4.96511 50.2243L0.50708 0.22229H49.4931Z" fill="#264DE4"/>
<path id="polygon2991" d="M41.2099 47.033L45.0236 4.31067H25.0002V51.5269L41.2099 47.033Z" fill="#2965F1"/>
<path id="polygon2993" d="M10.7271 22.8557L11.2767 28.9882H25.0001V22.8557H10.7271Z" fill="#EBEBEB"/>
<path id="polygon2995" d="M25.0001 10.4432H24.9789H9.62256L10.18 16.5758H25.0001V10.4432Z" fill="#EBEBEB"/>
<path id="polygon2997" d="M25.0002 45.1629V38.7825L24.9734 38.7896L18.1435 36.9454L17.7069 32.0544H14.3881H11.5508L12.4099 41.6834L24.972 45.1707L25.0002 45.1629Z" fill="#EBEBEB"/>
<path id="polygon3005" d="M32.5305 28.9881L31.8187 36.9416L24.979 38.7877V45.1678L37.5511 41.6835L37.6433 40.6474L39.0844 24.5024L39.234 22.8557L40.3411 10.4432H24.979V16.5758H33.6204L33.0624 22.8557H24.979V28.9881H32.5305Z" fill="white"/>
</g>
</svg>
