<svg width="56" height="56" viewBox="0 0 56 56" fill="none" xmlns="http://www.w3.org/2000/svg">
<g id="Group 65">
<path id="Vector" d="M55.0897 8.44504L29.4693 55.0526C28.9403 56.015 27.5813 56.0206 27.0444 55.0631L0.916085 8.44938C0.331053 7.40599 1.20818 6.14195 2.37057 6.35349L28.0185 11.0171C28.1821 11.0469 28.3496 11.0466 28.5132 11.0162L53.6246 6.35999C54.7831 6.1452 55.6643 7.39948 55.0897 8.44504Z" fill="url(#paint0_linear_16_353)"/>
<path id="Vector_2" d="M40.2359 0.235846L21.2762 4.01539C21.1247 4.04558 20.9874 4.12614 20.8858 4.24439C20.7843 4.36264 20.7242 4.51188 20.7151 4.66865L19.5488 24.7077C19.5424 24.8176 19.5613 24.9275 19.6039 25.0287C19.6465 25.1299 19.7118 25.2196 19.7944 25.2907C19.8771 25.3618 19.9749 25.4122 20.0801 25.4381C20.1853 25.464 20.2949 25.4646 20.4004 25.4399L25.6791 24.2006C26.173 24.0846 26.6193 24.5272 26.5177 25.0324L24.9494 32.8453C24.844 33.3711 25.3291 33.8206 25.8338 33.6646L29.0943 32.657C29.5996 32.5009 30.0854 32.9517 29.9784 33.478L27.4862 45.7501C27.3302 46.5178 28.3339 46.9363 28.7523 46.2783L29.0321 45.8388L44.4815 14.4719C44.7404 13.9467 44.2941 13.3479 43.7274 13.4593L38.2935 14.5261C37.7831 14.6262 37.3487 14.1424 37.4927 13.6344L41.0391 1.12731C41.1833 0.617962 40.7472 0.133978 40.2361 0.235846H40.2359Z" fill="url(#paint1_linear_16_353)"/>
</g>
<defs>
<linearGradient id="paint0_linear_16_353" x1="0.278141" y1="10.1138" x2="28.5284" y2="47.8265" gradientUnits="userSpaceOnUse">
<stop stop-color="#41D1FF"/>
<stop offset="1" stop-color="#BD34FE"/>
</linearGradient>
<linearGradient id="paint1_linear_16_353" x1="30.3956" y1="1.26207" x2="36.2744" y2="40.9022" gradientUnits="userSpaceOnUse">
<stop stop-color="#FFEA83"/>
<stop offset="0.083" stop-color="#FFDD35"/>
<stop offset="1" stop-color="#FFA800"/>
</linearGradient>
</defs>
</svg>
