<svg width="56" height="56" viewBox="0 0 56 56" fill="none" xmlns="http://www.w3.org/2000/svg">
<g id="Group 68">
<path id="Vector" d="M55.7777 0.222168H0.222168V55.7777H55.7777V0.222168Z" fill="#F7DF1E"/>
<path id="Vector_2" d="M37.5415 43.6251C38.6605 45.4523 40.1164 46.7953 42.6914 46.7953C44.8545 46.7953 46.2363 45.7142 46.2363 44.2203C46.2363 42.4302 44.8166 41.7962 42.4356 40.7547L41.1305 40.1948C37.3633 38.5898 34.8607 36.5792 34.8607 32.3288C34.8607 28.4135 37.8439 25.4329 42.5062 25.4329C45.8254 25.4329 48.2117 26.5881 49.9312 29.6128L45.866 32.223C44.9709 30.618 44.0053 29.9858 42.5062 29.9858C40.9771 29.9858 40.0079 30.9558 40.0079 32.223C40.0079 33.7891 40.978 34.4232 43.2178 35.3932L44.5229 35.9523C48.9586 37.8544 51.463 39.7935 51.463 44.1533C51.463 48.8535 47.7707 51.4285 42.8122 51.4285C37.9639 51.4285 34.8316 49.118 33.299 46.0898L37.5415 43.6251ZM19.0997 44.0775C19.9198 45.5325 20.6658 46.7627 22.4594 46.7627C24.1746 46.7627 25.2566 46.0916 25.2566 43.4822V25.7309H30.4771V43.5528C30.4771 48.9584 27.3078 51.4188 22.6817 51.4188C18.5018 51.4188 16.0811 49.2556 14.8501 46.6502L19.0997 44.0775Z" fill="black"/>
</g>
</svg>
