<svg width="56" height="56" viewBox="0 0 56 56" fill="none" xmlns="http://www.w3.org/2000/svg">
<path id="Vector" d="M54.73 25.5246L30.4739 1.26986C29.0779 -0.127062 26.8122 -0.127062 25.4144 1.26986L20.3775 6.30675L26.7671 12.6963C28.2519 12.1946 29.9546 12.5311 31.1382 13.7147C32.3274 14.9059 32.6616 16.6232 32.1477 18.1127L38.3055 24.2707C39.7953 23.7575 41.5143 24.0895 42.7042 25.2814C44.3671 26.9437 44.3671 29.6379 42.7042 31.3013C41.0407 32.965 38.3465 32.965 36.6822 31.3013C35.4314 30.0492 35.1223 28.2121 35.7556 26.6711L30.013 20.9285L30.0123 36.0407C30.4286 36.2465 30.8088 36.5184 31.1382 36.8458C32.8012 38.5081 32.8012 41.2026 31.1382 42.8673C29.4748 44.5301 26.7792 44.5301 25.1182 42.8673C23.4552 41.2026 23.4552 38.5084 25.1182 36.846C25.5167 36.4473 25.9903 36.1315 26.5117 35.917V20.664C25.9896 20.4508 25.5157 20.1349 25.1182 19.7349C23.8582 18.4767 23.5553 16.6279 24.2009 15.0808L17.9023 8.78158L1.27034 25.4124C-0.127224 26.8107 -0.127224 29.0765 1.27034 30.4736L25.5269 54.7288C26.9233 56.126 29.1885 56.126 30.5868 54.7288L54.7298 30.5863C56.1269 29.1887 56.1269 26.9216 54.7298 25.5246" fill="#DE4C36"/>
</svg>
