<svg width="38" height="56" viewBox="0 0 38 56" fill="none" xmlns="http://www.w3.org/2000/svg">
<g id="Group 84">
<path id="Vector" d="M9.74071 55.7778C14.8518 55.7778 19 51.6296 19 46.5185V37.2593H9.74071C4.62959 37.2593 0.481445 41.4074 0.481445 46.5185C0.481445 51.6296 4.62959 55.7778 9.74071 55.7778Z" fill="#0ACF83"/>
<path id="Vector_2" d="M0.481445 28C0.481445 22.8889 4.62959 18.7407 9.74071 18.7407H19V37.2592H9.74071C4.62959 37.2592 0.481445 33.1111 0.481445 28Z" fill="#A259FF"/>
<path id="Vector_3" d="M0.481445 9.48142C0.481445 4.37031 4.62959 0.222168 9.74071 0.222168H19V18.7407H9.74071C4.62959 18.7407 0.481445 14.5925 0.481445 9.48142Z" fill="#F24E1E"/>
<path id="Vector_4" d="M19 0.222168H28.2593C33.3704 0.222168 37.5186 4.37031 37.5186 9.48142C37.5186 14.5925 33.3704 18.7407 28.2593 18.7407H19V0.222168Z" fill="#FF7262"/>
<path id="Vector_5" d="M37.5186 28C37.5186 33.1111 33.3704 37.2592 28.2593 37.2592C23.1482 37.2592 19 33.1111 19 28C19 22.8889 23.1482 18.7407 28.2593 18.7407C33.3704 18.7407 37.5186 22.8889 37.5186 28Z" fill="#1ABCFE"/>
</g>
</svg>
