<svg width="56" height="56" viewBox="0 0 56 56" fill="none" xmlns="http://www.w3.org/2000/svg">
<g id="Group 70">
<path id="Vector" d="M28 32.8979C30.705 32.8979 32.8979 30.705 32.8979 28C32.8979 25.2949 30.705 23.1021 28 23.1021C25.2949 23.1021 23.1021 25.2949 23.1021 28C23.1021 30.705 25.2949 32.8979 28 32.8979Z" fill="#61DAFB"/>
<g id="Group">
<path id="Vector_2" d="M28 38.0348C42.5148 38.0348 54.2814 33.5421 54.2814 28.0001C54.2814 22.458 42.5148 17.9653 28 17.9653C13.4851 17.9653 1.71851 22.458 1.71851 28.0001C1.71851 33.5421 13.4851 38.0348 28 38.0348Z" stroke="#61DAFB" stroke-width="2.77778"/>
<path id="Vector_3" d="M19.3096 33.0173C26.567 45.5875 36.3411 53.5314 41.1407 50.7603C45.9402 47.9893 43.9477 35.5528 36.6903 22.9826C29.4329 10.4123 19.6588 2.46852 14.8592 5.23954C10.0597 8.01055 12.0522 20.4471 19.3096 33.0173Z" stroke="#61DAFB" stroke-width="2.77778"/>
<path id="Vector_4" d="M19.3097 22.9825C12.0522 35.5527 10.0597 47.9893 14.8593 50.7603C19.6588 53.5313 29.4329 45.5875 36.6903 33.0172C43.9478 20.447 45.9403 8.01048 41.1407 5.23947C36.3412 2.46845 26.5671 10.4123 19.3097 22.9825Z" stroke="#61DAFB" stroke-width="2.77778"/>
</g>
</g>
</svg>
